# xmcd CD database file
#
# Track frame offsets:
#	150
#	16916
#	40250
#	69592
#	93056
#	129076
#	153116
#	175549
#	201922
#	227368
#	258782
#
# Disc length: 3918 seconds
#
# Revision: 0
# Processed by: cddbd v1.4PL0 Copyright (c) Steve Scherf et al.
# Submitted via: CDex 1.50
#
DISCID=730f4c0b
DTITLE=Andreas Diemer - Find Myself
DYEAR=2000
DGENRE=Jazz
TTITLE0=Take It Easy
TTITLE1=Fly Like A Bird
TTITLE2=Autumn Buggle
TTITLE3=New Latin Funk
TTITLE4=Zarde Na Rede
TTITLE5=Landscapes
TTITLE6=Funky Stuff
TTITLE7=For C and P
TTITLE8=(B)ack To The Roots
TTITLE9=Linda
TTITLE10=Find Myself
EXTD=YEAR: 2000
EXTT0=
EXTT1=
EXTT2=
EXTT3=
EXTT4=
EXTT5=
EXTT6=
EXTT7=
EXTT8=
EXTT9=
EXTT10=
PLAYORDER=
